HIERARCHY
ROOT Hips
{
	OFFSET -3.958830 18.904000 13.208200
	CHANNELS 6 Xposition Yposition Zposition Zrotation Yrotation Xrotation 
	JOINT LHipJoint
	{
		OFFSET 0.000000 0.000000 0.000000
		CHANNELS 3 Zrotation Yrotation Xrotation
		JOINT LeftUpLeg
		{
			OFFSET 1.800000 -1.400000 0.085000
			CHANNELS 3 Zrotation Yrotation Xrotation
			JOINT LeftLeg
			{
				OFFSET 2.215000 -6.000000 0.000000
				CHANNELS 3 Zrotation Yrotation Xrotation
				JOINT LeftFoot
				{
					OFFSET 2.500000 -6.900000 0.000000
					CHANNELS 3 Zrotation Yrotation Xrotation
					JOINT LeftToeBase
					{
						OFFSET 0.200000 -0.500000 1.950000
						CHANNELS 3 Zrotation Yrotation Xrotation
						End Site
						{
							OFFSET 0.000000 0.000000 0.000000
						}
					}
				}
			}
		}
	}
	JOINT RHipJoint
	{
		OFFSET 0.000000 0.000000 0.000000
		CHANNELS 3 Zrotation Yrotation Xrotation
		JOINT RightUpLeg
		{
			OFFSET -1.800000 -1.400000 0.085000
			CHANNELS 3 Zrotation Yrotation Xrotation
			JOINT RightLeg
			{
				OFFSET -2.215000 -6.000000 0.000000
				CHANNELS 3 Zrotation Yrotation Xrotation
				JOINT RightFoot
				{
					OFFSET -2.500000 -6.900000 0.000000
					CHANNELS 3 Zrotation Yrotation Xrotation
					JOINT RightToeBase
					{
						OFFSET -0.200000 -0.500000 1.950000
						CHANNELS 3 Zrotation Yrotation Xrotation
						End Site
						{
							OFFSET 0.000000 0.000000 0.000000
						}
					}
				}
			}
		}
	}
	JOINT LowerBack
	{
		OFFSET 0.000000 0.000000 0.000000
		CHANNELS 3 Zrotation Yrotation Xrotation
		JOINT Spine
		{
			OFFSET -0.087000 1.940000 -0.288900
			CHANNELS 3 Zrotation Yrotation Xrotation
			JOINT Spine1
			{
				OFFSET 0.000000 1.950000 0.060000
				CHANNELS 3 Zrotation Yrotation Xrotation
				JOINT Neck
				{
					OFFSET 0.000000 0.000000 0.000000
					CHANNELS 3 Zrotation Yrotation Xrotation
					JOINT Neck1
					{
						OFFSET 0.000000 1.600000 0.340000
						CHANNELS 3 Zrotation Yrotation Xrotation
						JOINT Head
						{
							OFFSET 0.000000 1.667000 -0.240000
							CHANNELS 3 Zrotation Yrotation Xrotation
							End Site
							{
								OFFSET 0.000000 0.000000 0.000000
							}
						}
					}
				}
				JOINT LeftShoulder
				{
					OFFSET 0.000000 0.000000 0.000000
					CHANNELS 3 Zrotation Yrotation Xrotation
					JOINT LeftArm
					{
						OFFSET 2.700000 1.550000 -0.730000
						CHANNELS 3 Zrotation Yrotation Xrotation
						JOINT LeftForeArm
						{
							OFFSET 5.450000 0.000000 0.000000
							CHANNELS 3 Zrotation Yrotation Xrotation
							JOINT LeftHand
							{
								OFFSET 3.450000 0.000000 0.000000
								CHANNELS 3 Zrotation Yrotation Xrotation
								JOINT LeftHandIndex1
								{
									OFFSET 0.750000 0.000000 0.000000
									CHANNELS 3 Zrotation Yrotation Xrotation
									End Site
									{
										OFFSET 0.000000 0.000000 0.000000
									}
								}
							}
						}
					}
				}
				JOINT RightShoulder
				{
					OFFSET 0.000000 0.000000 0.000000
					CHANNELS 3 Zrotation Yrotation Xrotation
					JOINT RightArm
					{
						OFFSET -2.700000 1.550000 -0.730000
						CHANNELS 3 Zrotation Yrotation Xrotation
						JOINT RightForeArm
						{
							OFFSET -5.450000 0.000000 0.000000
							CHANNELS 3 Zrotation Yrotation Xrotation
							JOINT RightHand
							{
								OFFSET -3.450000 0.000000 0.000000
								CHANNELS 3 Zrotation Yrotation Xrotation
								JOINT RightHandIndex1
								{
									OFFSET -0.750000 0.000000 0.000000
									CHANNELS 3 Zrotation Yrotation Xrotation
									End Site
									{
										OFFSET 0.000000 0.000000 0.000000
									}
								}
							}
						}
					}
				}
			}
		}
	}
}
MOTION
Frames: 7
Frame Time: 0.016667
-0.002920 16.416620 -5.467010 -5.216988 -20.281541 6.948108 -15.394611 13.744423 3.195230 2.298125 -1.495864 -4.659282 -15.155269 11.534146 25.005574 0.355045 7.082893 2.307297 -0.034170 -0.589760 0.119350 18.107883 -9.039650 4.305901 10.534419 8.215778 -35.238563 4.320934 -2.779517 10.285129 0.116029 -1.055256 4.138580 -0.443480 0.313490 0.382090 -2.739676 -4.354910 -8.709093 8.196648 -6.512075 17.759689 -2.239425 -4.017909 -13.136310 6.462983 1.922732 -8.234633 2.448766 9.167752 38.991993 -0.170710 13.494830 -4.012320 -9.251034 10.534356 0.188456 -50.980478 11.429076 -10.103503 11.096139 -11.098705 -1.979669 -4.018503 2.664392 0.793150 0.141750 0.023770 0.101880 -2.229839 -12.595592 3.779652 55.270965 -16.075442 -18.905342 -12.529213 28.636524 -1.768041 2.132002 -1.131803 -0.273720 -0.004040 0.171920 -0.307090 
-0.036590 16.434480 -5.373550 -5.409762 -21.878023 7.903295 -15.400418 13.675091 3.178315 2.177618 -1.462844 -5.127808 -15.459345 11.719571 25.121851 0.405037 7.130830 2.312565 -0.095790 -0.663670 0.059600 18.115670 -9.069869 4.273579 11.161567 8.036506 -33.968312 4.661735 -2.610478 7.861069 0.159385 -1.038989 4.174496 -0.486350 0.371670 0.381060 -2.742962 -4.198706 -8.665422 8.253415 -6.036929 15.491620 -1.109231 -3.747024 -12.928215 6.205356 2.267653 -8.394961 3.325864 9.421251 38.102838 0.628970 13.734630 -0.409860 -6.939655 11.591267 0.662092 -53.276350 13.026441 -11.162167 10.484913 -10.036801 -1.873629 -4.074417 2.667615 0.748090 0.185110 -0.027140 0.111640 -4.036906 -13.816744 3.751876 57.223030 -16.326239 -20.124950 -17.271981 30.696339 -2.734604 2.129825 -1.206509 -0.284770 -0.023860 0.190940 -0.287560 
-0.063560 16.452380 -5.292180 -5.569370 -22.436443 8.415985 -15.396917 13.606184 3.118776 2.555874 -1.404739 -4.892313 -15.464107 11.832909 25.178675 0.442891 7.208574 2.318176 -0.157430 -0.740650 -0.001240 18.135524 -9.118760 4.221145 11.077090 7.898046 -33.264327 5.226897 -2.640294 7.070355 0.191182 -1.124445 4.163955 -0.524190 0.442950 0.387990 -2.794190 -3.998748 -8.546230 8.449786 -5.871015 13.303761 -0.135771 -3.971601 -11.754477 5.843289 2.787074 -8.476233 4.453117 9.444517 36.687146 1.152720 13.767120 2.948270 -4.968205 11.921064 1.292181 -55.569831 14.315874 -12.436632 9.726476 -9.413520 -1.868139 -4.133682 2.675698 0.702240 0.238780 -0.083540 0.125210 -5.379490 -14.752796 3.660651 59.579903 -16.290875 -21.583485 -21.866926 32.600868 -3.975360 2.119661 -1.280525 -0.302380 -0.038840 0.213050 -0.266820 
-0.079240 16.472500 -5.237700 -5.548980 -22.792479 8.633897 -15.403125 13.538045 3.068451 2.898170 -1.500054 -5.015144 -15.468100 12.059395 25.850118 0.499035 7.347918 2.301086 -0.200820 -0.784210 -0.057980 18.147784 -9.153518 4.153193 10.842977 7.723888 -32.789980 5.568759 -2.664568 6.663908 0.220344 -1.211878 4.156130 -0.543740 0.512210 0.393200 -2.823984 -3.844385 -8.407790 8.347660 -5.759992 11.710060 0.697693 -4.298361 -10.551983 5.537660 3.258916 -8.324495 5.395782 9.524416 35.087841 1.645150 13.719080 5.636490 -3.877728 12.042633 1.653382 -57.302190 14.812326 -13.281463 9.339751 -8.621379 -1.828163 -4.191877 2.691567 0.642330 0.293950 -0.136880 0.146520 -5.867957 -15.527219 3.437352 61.396348 -16.221697 -22.766998 -25.413523 34.349735 -5.165090 2.103407 -1.346379 -0.309360 -0.047610 0.223130 -0.238250 
-0.096090 16.499450 -5.184630 -5.320763 -23.154015 8.272504 -15.414465 13.527850 3.046134 3.140061 -1.527777 -4.630719 -15.337964 12.231105 26.475395 0.559237 7.442153 2.273426 -0.202180 -0.771520 -0.075160 18.140727 -9.216967 4.064661 10.563638 7.311817 -31.711780 5.756570 -2.666730 6.037188 0.216512 -1.279017 4.145233 -0.546010 0.515850 0.397370 -2.797752 -3.764151 -8.316406 7.866114 -5.701653 10.671105 1.425011 -4.602223 -9.677426 5.349960 3.730478 -8.280650 6.267647 9.321307 35.135624 1.854000 13.740140 6.961270 -3.252692 12.175672 1.867179 -58.465938 15.158708 -13.837924 8.664451 -7.706947 -1.739346 -4.203885 2.705375 0.609610 0.307190 -0.140820 0.161000 -6.056145 -16.218934 3.400871 62.725062 -16.651343 -23.999708 -27.463638 36.959023 -6.198799 2.075249 -1.388705 -0.289800 -0.069760 0.207130 -0.219730 
-0.097280 16.529140 -5.144110 -5.019056 -23.355099 7.861311 -15.422041 13.564427 3.038419 3.104319 -1.597273 -4.472079 -14.801593 12.236542 27.265366 0.600943 7.478317 2.256416 -0.194060 -0.755260 -0.080550 18.127582 -9.266131 4.001129 10.196826 6.953001 -30.904509 5.798066 -2.660428 5.623021 0.206271 -1.318890 4.133895 -0.550860 0.504810 0.403290 -2.758470 -3.782011 -8.270292 7.508479 -5.822813 10.059700 2.260022 -4.882212 -9.410440 5.117445 3.835066 -8.288089 6.439775 9.213800 35.887532 2.166090 13.589440 8.090920 -2.859480 12.491409 2.011631 -59.851277 15.542567 -14.360152 8.260686 -7.253227 -1.706270 -4.197999 2.717192 0.593440 0.303650 -0.133080 0.170030 -5.905720 -16.697209 3.324434 63.563028 -16.787905 -24.762654 -29.302881 39.283588 -7.170293 2.055506 -1.412797 -0.265210 -0.094350 0.191200 -0.205470 
-0.092790 16.558120 -5.109330 -4.692143 -23.841643 7.287414 -15.423855 13.613708 3.040739 2.892798 -1.593735 -4.154644 -14.143140 12.168132 27.968508 0.626437 7.477798 2.240006 -0.166820 -0.728880 -0.055820 18.113528 -9.329950 3.952173 9.858502 6.602408 -29.996422 5.819264 -2.663880 5.244689 0.178189 -1.341864 4.117447 -0.553510 0.462040 0.411000 -2.714642 -3.790614 -8.260131 7.111296 -5.809189 9.706094 3.025172 -4.950236 -9.230656 4.887165 3.883583 -8.481584 6.506273 8.953652 37.580185 2.419680 13.385440 8.609110 -2.425618 12.731368 2.177346 -61.208167 15.871249 -14.830756 7.573784 -6.978103 -1.703799 -4.167375 2.719536 0.606950 0.275470 -0.100760 0.171100 -5.819845 -16.945557 3.431889 64.505902 -16.984314 -25.579323 -30.113853 41.713628 -7.925706 2.028674 -1.414116 -0.237040 -0.121930 0.168210 -0.206110 
